<?xml version="1.0" encoding="UTF-8"?>
<svg xmlns="http://www.w3.org/2000/svg" xmlns:xlink="http://www.w3.org/1999/xlink" width="56px" height="60px" viewBox="0 0 56 60" version="1.1">
    <!-- Generator: Sketch 52.6 (67491) - http://www.bohemiancoding.com/sketch -->
    <title>035 - Down Arrow</title>
    <desc>Created with Sketch.</desc>
    <g id="Page-1" stroke="none" stroke-width="1" fill="none" fill-rule="evenodd">
        <g id="035---Down-Arrow">
            <g id="Icons_copy" transform="translate(1.000000, 1.000000)">
                <path d="M52.41,33.414 L28.41,57.414 C27.6290003,58.1947639 26.3629997,58.1947639 25.582,57.414 L1.582,33.414 C1.00966718,32.8414969 0.838892388,31.9804407 1.14940688,31.2328409 C1.45992136,30.4852412 2.19048005,29.9985525 3,30 L8,30 L8,2 C8,0.8954305 8.8954305,2.22044605e-16 10,0 L44,0 C45.1045695,0 46,0.8954305 46,2 L46,30 L51,30 C51.808064,30.0017867 52.5356625,30.4896608 52.8441256,31.2365351 C53.1525886,31.9834094 52.9813046,32.8425268 52.41,33.414 Z" id="Path" fill="#FFDC00"/>
                <path d="M43,2 L43,29 C43,29.5522847 43.4477153,30 44,30 L46,30 L46,2 C46,0.8954305 45.1045695,0 44,0 L41,0 C42.1045695,0 43,0.8954305 43,2 Z" id="Path" fill="#FF8401"/>
                <path d="M51,30 L48,30 C48.8087918,30.0001727 49.5378681,30.487455 49.847356,31.2346909 C50.1568438,31.9819268 49.9858158,32.8420115 49.414,33.414 L25.5,57.328 L25.586,57.414 C26.3669997,58.1947639 27.6330003,58.1947639 28.414,57.414 L52.414,33.414 C52.9858158,32.8420115 53.1568438,31.9819268 52.847356,31.2346909 C52.5378681,30.487455 51.8087918,30.0001727 51,30 Z" id="Path" fill="#FF8401"/>
            </g>
            <g id="Icons_copy_2" transform="translate(2.000000, 1.000000)" fill="#FFFFFF">
                <path d="M12,0 L9,0 C7.8954305,-1.11022302e-16 7,0.8954305 7,2 L7,30 L10,30 L10,2 C10,0.8954305 10.8954305,2.22044605e-16 12,0 Z" id="Path"/>
                <path d="M5,30 L2,30 C1.19193597,30.0017867 0.464337459,30.4896608 0.155874433,31.2365351 C-0.152588593,31.9834094 0.0186953602,32.8425268 0.59,33.414 L24.5,57.328 L24.586,57.414 C25.3669997,58.1947639 26.6330003,58.1947639 27.414,57.414 L27.5,57.328 L3.59,33.414 C3.01869536,32.8425268 2.84741141,31.9834094 3.15587443,31.2365351 C3.46433746,30.4896608 4.19193597,30.0017867 5,30 Z" id="Path"/>
            </g>
            <g id="Icons">
                <rect id="Rectangle" fill="#FFFFFF" transform="translate(23.758685, 55.585604) rotate(-44.994000) translate(-23.758685, -55.585604) " x="22.758685" y="51.5856043" width="2" height="8"/>
                <path d="M23.778,56.585 C23.2257153,56.5877614 22.7757614,56.1422847 22.773,55.59 C22.7702386,55.0377153 23.2157153,54.5877614 23.768,54.585 L23.778,54.585 C24.3302847,54.585 24.778,55.0327153 24.778,55.585 C24.778,56.1372847 24.3302847,56.585 23.778,56.585 Z" id="Path" fill="#000000"/>
                <path d="M28,60 C28.7960678,60.0022673 29.5599041,59.6857128 30.121,59.121 L54.121,35.121 C54.9787237,34.2630172 55.2352657,32.9728902 54.7710339,31.8520363 C54.3068022,30.7311825 53.2131877,30.000259 52,30 L48,30 L48,3 C48,1.34314575 46.6568542,3.04461744e-15 45,0 L11,0 C9.34314575,-1.01453063e-16 8,1.34314575 8,3 L8,30 L4,30 C2.78681231,30.000259 1.69319785,30.7311825 1.22896607,31.8520363 C0.764734282,32.9728902 1.02127625,34.2630172 1.879,35.121 L20.222,53.464 C20.6124653,53.8547414 21.2457585,53.8549653 21.6365,53.4645 C22.0272414,53.0740347 22.0274653,52.4407415 21.637,52.05 L3.3,33.707 C3.01497415,33.4219089 2.92900619,32.9935507 3.08196055,32.6205606 C3.23491491,32.2475704 3.59687684,32.0028976 4,32 L9,32 C9.55228475,32 10,31.5522847 10,31 L10,3 C10,2.44771525 10.4477153,2 11,2 L45,2 C45.5522847,2 46,2.44771525 46,3 L46,31 C46,31.5522847 46.4477153,32 47,32 L52,32 C52.4043959,32.0000863 52.7689341,32.2437275 52.923678,32.6173454 C53.0784219,32.9909634 52.9929079,33.4210057 52.707,33.707 L28.707,57.707 C28.311519,58.0851625 27.688481,58.0851625 27.293,57.707 C26.9025347,57.3162586 26.2692415,57.3160347 25.8785,57.7065 C25.4877586,58.0969653 25.4875347,58.7302585 25.878,59.121 C26.4395933,59.6855816 27.203674,60.0020882 28,60 Z" id="Path" fill="#000000"/>
                <path d="M5,28 C5.55228475,28 6,27.5522847 6,27 L6,6 C6,5.44771525 5.55228475,5 5,5 C4.44771525,5 4,5.44771525 4,6 L4,27 C4,27.5522847 4.44771525,28 5,28 Z" id="Path" fill="#000000"/>
                <path d="M2,27 L2,13 C2,12.4477153 1.55228475,12 1,12 C0.44771525,12 0,12.4477153 0,13 L0,27 C0,27.5522847 0.44771525,28 1,28 C1.55228475,28 2,27.5522847 2,27 Z" id="Path" fill="#000000"/>
                <path d="M52,27 L52,6 C52,5.44771525 51.5522847,5 51,5 C50.4477153,5 50,5.44771525 50,6 L50,27 C50,27.5522847 50.4477153,28 51,28 C51.5522847,28 52,27.5522847 52,27 Z" id="Path" fill="#000000"/>
                <path d="M56,27 L56,13 C56,12.4477153 55.5522847,12 55,12 C54.4477153,12 54,12.4477153 54,13 L54,27 C54,27.5522847 54.4477153,28 55,28 C55.5522847,28 56,27.5522847 56,27 Z" id="Path" fill="#000000"/>
                <path d="M27,44 C27,44.5522847 27.4477153,45 28,45 C28.5522847,45 29,44.5522847 29,44 L29,40.963 C34.6,40.594 39,37.163 39,33 C39,28.837 34.6,25.406 29,25.037 L29,13.037 C33.493,13.37 37,15.915 37,18.998 C37,19.5502847 37.4477153,19.998 38,19.998 C38.5522847,19.998 39,19.5502847 39,18.998 C39,14.832 34.6,11.404 29,11.035 L29,8 C29,7.44771525 28.5522847,7 28,7 C27.4477153,7 27,7.44771525 27,8 L27,11.037 C21.4,11.406 17,14.837 17,19 C17,23.163 21.4,26.594 27,26.963 L27,38.963 C22.507,38.63 19,36.085 19,33.002 C19,32.4497153 18.5522847,32.002 18,32.002 C17.4477153,32.002 17,32.4497153 17,33.002 C17,37.168 21.4,40.596 27,40.965 L27,44 Z M37,33 C37,36.083 33.493,38.628 29,38.961 L29,27.039 C33.493,27.372 37,29.917 37,33 Z M19,19 C19,15.917 22.507,13.372 27,13.039 L27,24.961 C22.507,24.628 19,22.083 19,19 Z" id="Shape" fill="#000000" fill-rule="nonzero"/>
            </g>
        </g>
    </g>
</svg>
